<svg xmlns="http://www.w3.org/2000/svg" width="1200" height="630" viewBox="0 0 1200 630">
  <!-- Background -->
  <rect width="1200" height="630" fill="#0f172a"/>
  <!-- Subtle grid lines -->
  <line x1="0" y1="315" x2="1200" y2="315" stroke="#1e293b" stroke-width="1"/>
  <line x1="600" y1="0" x2="600" y2="630" stroke="#1e293b" stroke-width="1"/>
  <!-- Accent glow -->
  <ellipse cx="600" cy="315" rx="340" ry="160" fill="#10b981" fill-opacity="0.07"/>
  <!-- 3Commas logo group, centred ~600,315, scaled ~3.6x from 125x31 original -->
  <g transform="translate(268, 268) scale(3.65)">
    <g fill-rule="evenodd">
      <path fill="#05ab8c" d="M30.795 0v30.918H0V0z"/>
      <path fill="#ffffff" d="M20.354 19.093h3.167a.2.2 0 00.19-.137l1.136-3.417a.2.2 0 00.002-.007l.998-3.434a.2.2 0 00-.016-.15l-.074-.14a.2.2 0 00-.177-.106h-4.024a.2.2 0 00-.198.168l-.588 3.663a.2.2 0 010 .005l-.613 3.318a.2.2 0 00.197.237zm-7.804 0h3.155a.2.2 0 00.19-.137l1.144-3.417a.2.2 0 00.002-.007l1.004-3.434a.2.2 0 00-.015-.15l-.076-.14a.2.2 0 00-.176-.106h-4.054a.2.2 0 00-.198.168l-.592 3.664v.003l-.58 3.321a.2.2 0 00.196.235zm-7.594 0h3.168a.2.2 0 00.19-.137l1.136-3.417a.2.2 0 00.002-.007l.998-3.434a.2.2 0 00-.016-.15l-.075-.14a.2.2 0 00-.176-.106H6.158a.2.2 0 00-.197.168l-.588 3.663a.2.2 0 010 .005l-.613 3.318a.2.2 0 00.196.237z"/>
      <path fill="#e2e8f0" d="M47.384 18.37c0 2.589-1.979 4.338-5.164 4.338-1.66 0-3.253-.5-4.14-1.363l.978-1.885c.66.704 1.706 1.09 2.866 1.09 1.729 0 2.776-.886 2.776-2.18s-1.024-2.112-2.594-2.112c-.705 0-1.296.136-1.842.431l-.705-1.294 3.73-4.27h-4.617V8.99h7.984v1.613l-3.503 3.725c2.571.045 4.231 1.68 4.231 4.042zm.842-2.657c0-4.156 2.866-6.904 7.188-6.904 2.207 0 4.004.727 5.346 2.18l-1.638 1.635c-.774-.976-2.07-1.68-3.685-1.68-2.73 0-4.55 1.93-4.55 4.792 0 2.906 1.843 4.837 4.573 4.837 1.842 0 3.093-.818 3.958-2.135l1.751 1.544c-1.296 1.772-3.275 2.726-5.755 2.726-4.299 0-7.188-2.794-7.188-6.995zm13.193 1.885c0-3.066 2.116-5.11 5.301-5.11 3.162 0 5.277 2.044 5.277 5.11 0 3.066-2.115 5.132-5.277 5.132-3.162-.022-5.301-2.066-5.301-5.132zm7.985 0c0-1.794-1.092-2.975-2.684-2.975-1.638 0-2.707 1.181-2.707 2.975s1.091 2.975 2.707 2.975c1.615 0 2.684-1.181 2.684-2.975zm19.404-1.272v6.2h-2.502v-5.791c0-1.272-.796-2.112-2.025-2.112-1.205 0-2.024.84-2.024 2.112v5.791h-2.503v-5.791c0-1.272-.796-2.112-2.024-2.112-1.206 0-2.025.84-2.025 2.112v5.791h-2.502V12.67h2.411l.046 1.181c.705-.886 1.751-1.363 2.957-1.363 1.297 0 2.343.545 2.98 1.476.705-.976 1.865-1.476 3.185-1.476 2.411 0 4.026 1.544 4.026 3.838zm17.242 0v6.2h-2.5v-5.791c0-1.272-.8-2.112-2.03-2.112-1.2 0-2.021.84-2.021 2.112v5.791h-2.502v-5.791c0-1.272-.796-2.112-2.024-2.112-1.206 0-2.025.84-2.025 2.112v5.791h-2.502V12.67h2.411l.045 1.181c.706-.886 1.752-1.363 2.958-1.363 1.296 0 2.343.545 2.98 1.476.705-.976 1.86-1.476 3.18-1.476 2.44 0 4.03 1.544 4.03 3.838zm9.85 0v6.2h-2.39l-.04-1.408c-.66 1.022-1.8 1.59-3.01 1.59-2.04 0-3.43-1.227-3.43-3.066 0-1.908 1.68-3.157 4.21-3.157.68 0 1.43.068 2.18.227v-.182c0-1.317-.89-2.112-2.39-2.112-.93 0-1.68.273-2.29.795l-1.1-1.453c1.07-.863 2.3-1.272 4.03-1.272 2.53 0 4.23 1.522 4.23 3.838zm-2.5 2.09a9.19 9.19 0 00-1.87-.205c-1.18 0-1.93.545-1.93 1.385 0 .795.52 1.34 1.55 1.34 1.16 0 2.25-.908 2.25-2.52zm3.73 3.134l.93-1.499c.94.545 1.87.726 2.84.726.92 0 1.55-.386 1.55-.976 0-.591-.7-.931-1.68-1.181l-.82-.227c-1.66-.432-2.8-1.09-2.8-2.635 0-1.953 1.55-3.247 3.89-3.247 1.48 0 2.75.318 3.73.976l-1.04 1.635a5.218 5.218 0 00-2.51-.635c-.88 0-1.52.34-1.52.885 0 .591.61.863 1.48 1.09l.82.228c1.68.431 3.02 1.203 3.02 2.952 0 1.862-1.64 3.111-4.12 3.111-1.54-.045-2.86-.431-3.77-1.203z"/>
    </g>
  </g>
  <!-- Tagline -->
  <text x="600" y="400" font-family="system-ui, -apple-system, sans-serif" font-size="28" fill="#94a3b8" text-anchor="middle">Automated Crypto Trading Platform</text>
</svg>
